<?xml version="1.0" standalone="no"?> <!DOCTYPE svg PUBLIC "-//W3C//DTD SVG 1.0//EN" "http://www.w3.org/TR/2001/REC-SVG-20010904/DTD/svg10.dtd" > <svg xmlns="http://www.w3.org/2000/svg" width="100%" height="100%">
<defs >
<font id="Rokkitt-Light" horiz-adv-x="927" ><font-face
    font-family="Rokkitt"
    units-per-em="2048"
    panose-1="2 0 5 3 5 0 0 2 0 3"
    ascent="1789"
    descent="-439"
    alphabetic="0" />
<missing-glyph horiz-adv-x="395" />
<glyph unicode=" " glyph-name="space" horiz-adv-x="395" />
<glyph unicode="!" glyph-name="exclam" horiz-adv-x="432" d="M200 344L171 809V1171H260V809L231 344H200ZM164 106H269L267 0H164V106Z" />
<glyph unicode="&quot;" glyph-name="quotedbl" horiz-adv-x="543" d="M383 854H351L325 1234H416L383 854ZM190 854H158L131 1234H223L190 854Z" />
<glyph unicode="#" glyph-name="numbersign" horiz-adv-x="1034" d="M269 880L298 1234H377L348 880H713L742 1234H821L792 880H980L975 821H787L757 457H944L939 398H752L719 0H640L673 398H308L275 0H196L229 398H53L58 457H234L264 821H89L94 880H269ZM313
457H678L708 821H343L313 457Z" />
<glyph unicode="$" glyph-name="dollar" horiz-adv-x="1151" d="M701 -23V-190H641V-20Q464 -1 303 112V0H224V416H303V196Q463 78 641 57V594Q423 616 329 679Q215 756 215 918T333 1168T624 1255H641V1421H701V1250Q834 1235 971 1163V1234H1050V899H971V1080Q844
1162 701 1178V663Q780 654 840 640T955 599T1045 537T1100 445T1121 317Q1120 194 1030 97Q919 -23 704 -23H701ZM1032 452T952 508T701 587V53Q709 52 717 52H764Q812 52 867 77T953 134Q1032 212 1032 332ZM637 1182Q483 1182 395 1114T306 909Q306 782 399
728Q468 688 641 670V1182H637Z" />
<glyph unicode="%" glyph-name="percent" horiz-adv-x="1610" d="M1446 1310L1487 1270L386 -47L341 0L1446 1310ZM720 843T720 949T650 1123T474 1192T300 1124T230 949T299 775T474 706T649 774ZM794 806T699 724T474 641Q345 641 251 723T156 949T250 1174T474
1255Q605 1255 699 1174T794 950ZM1561 177T1561 283T1491 457T1315 526T1141 458T1071 283T1140 109T1315 40T1490 108ZM1635 140T1540 58T1315 -25Q1186 -25 1092 57T997 283T1091 508T1315 589Q1446 589 1540 508T1635 284Z" />
<glyph unicode="&amp;" glyph-name="ampersand" horiz-adv-x="1161" d="M487 1255Q606 1255 687 1192T769 1024Q769 853 618 750Q561 711 475 676L824 229Q830 238 844 257Q912 345 912 511H1108V446H968Q968 310 864 171L948 68H1108V0H914L812 113Q743 36 663
8T447 -23Q301 -23 187 78T72 322Q72 484 145 567T373 702L256 863Q206 930 206 1021T283 1183T487 1255ZM145 332Q145 220 239 134T450 48Q579 48 645 73T773 170L410 646Q194 582 156 430Q144 384 145 332ZM489 1183Q408 1183 344 1136T279 1016Q279 950 323
889L440 728Q652 810 684 932Q694 973 694 1036Q694 1103 633 1143T489 1183Z" />
<glyph unicode="&apos;" glyph-name="quotesingle" horiz-adv-x="350" d="M190 854H158L131 1234H223L190 854Z" />
<glyph unicode="(" glyph-name="parenleft" horiz-adv-x="580" d="M508 1200Q356 1146 274 994T191 616Q191 294 361 122Q421 62 508 31V-37Q315 11 211 195T106 616Q106 990 332 1180Q408 1244 508 1268V1200Z" />
<glyph unicode=")" glyph-name="parenright" horiz-adv-x="588" d="M394 616Q394 835 314 988T78 1200V1268Q270 1220 375 1036T480 616Q480 242 254 52Q178 -12 78 -37V31Q230 86 312 238T394 616Z" />
<glyph unicode="*" glyph-name="asterisk" horiz-adv-x="934" d="M517 1229L485 818L859 992L890 906L494 785L763 472L687 415L467 761L246 415L170 472L439 785L43 906L74 992L449 818L416 1229H517Z" />
<glyph unicode="+" glyph-name="plus" horiz-adv-x="811" d="M439 598H794V534H439V138H377V534H20V598H377V982H439V598Z" />
<glyph unicode="," glyph-name="comma" horiz-adv-x="412" d="M274 116V-6Q274 -180 139 -180V-136Q186 -121 198 -97T210 -4H148V116H274Z" />
<glyph unicode="-" glyph-name="hyphen" horiz-adv-x="786" d="M661 413H131V475H661V413Z" />
<glyph unicode="." glyph-name="period" horiz-adv-x="403" d="M263 120V0H147V120H263Z" />
<glyph unicode="/" glyph-name="slash" horiz-adv-x="537" d="M415 1255H486L118 -23H43L415 1255Z" />
<glyph unicode="0" glyph-name="zero" horiz-adv-x="1124" d="M561 -23Q464 -23 388 10T260 101T176 241T128 416T113 616Q113 1064 357 1206Q442 1256 561 1255Q788 1255 898 1078T1009 616Q1009 166 765 26Q680 -22 561 -23ZM561 48Q646 48 710 76T815 154T881
277T915 432T925 616Q925 1182 561 1182T197 616Q197 329 284 189T561 48Z" />
<glyph unicode="1" glyph-name="one" horiz-adv-x="598" d="M529 62V0H102V62H279V1147L123 1118L106 1186L360 1234V62H529Z" />
<glyph unicode="2" glyph-name="two" horiz-adv-x="993" d="M793 932Q793 1036 721 1109T546 1183Q306 1184 238 1016Q216 962 216 899T232 778H147Q135 834 135 906Q135 1063 242 1159T515 1255Q770 1255 852 1056Q912 908 839 760T612 453T357 204T219 78H819V0H109V80Q130
102 171 138Q562 486 677 654T793 932Z" />
<glyph unicode="3" glyph-name="three" horiz-adv-x="997" d="M636 660Q747 634 811 552T876 336Q876 188 750 85T438 -19Q313 -19 206 46T49 216L113 257Q217 50 465 50Q597 50 694 133T792 348Q792 602 464 615Q412 617 363 617H324V697H418Q684 697 748 825Q768
866 769 930Q769 1050 674 1116T455 1183Q225 1183 145 1026L74 1057Q177 1256 457 1256Q614 1256 734 1168T854 930Q854 833 794 761T636 660Z" />
<glyph unicode="4" glyph-name="four" horiz-adv-x="895" d="M4 442L489 1234H603V442H860V379H603V62H764V0H361V62H522V379H15L4 442ZM522 442V1156L97 442H522Z" />
<glyph unicode="5" glyph-name="five" horiz-adv-x="1022" d="M123 217Q230 53 496 53T844 234Q872 296 872 411T792 626T571 727Q346 727 217 660L165 685V1234H813L812 1164H244L235 748Q344 796 498 796T726 764Q956 665 956 375Q956 188 826 85T497 -18Q206
-18 76 163L123 217Z" />
<glyph unicode="6" glyph-name="six" horiz-adv-x="885" d="M441 49Q583 49 670 136T758 362Q758 497 666 577T480 658Q325 658 228 578T130 356Q130 221 188 160Q292 49 441 49ZM446 726Q609 726 724 623T839 364Q839 209 733 93T458 -23T171 81T53 331T188 697L545
1361L612 1314L261 678Q358 726 446 726Z" />
<glyph unicode="7" glyph-name="seven" horiz-adv-x="897" d="M368 52Q368 697 782 1164H155V916H78V1234H870V1158Q526 784 468 348Q450 208 450 52H631V-11H204V52H368Z" />
<glyph unicode="8" glyph-name="eight" horiz-adv-x="1042" d="M111 328Q112 443 186 531T380 644Q152 714 152 946Q152 1067 251 1161T523 1255Q685 1255 789 1165T894 926Q894 830 830 751T666 644Q789 620 861 533T934 304Q934 154 813 65T523 -24T233 64T111
328ZM523 596Q370 596 283 514T195 342Q195 193 292 121T522 49T752 121T850 322Q850 499 665 572Q604 596 523 596ZM523 1182Q318 1182 255 1028Q237 984 237 937Q237 833 291 779Q389 679 523 679Q726 680 790 844Q808 890 808 937Q808 1038 755 1089Q660 1182
523 1182Z" />
<glyph unicode="9" glyph-name="nine" horiz-adv-x="952" d="M480 1183Q337 1183 250 1096T163 870Q163 736 255 656T475 575Q603 576 669 634Q791 741 791 875Q792 1009 734 1071Q630 1183 480 1183ZM474 506Q311 506 197 609T82 868Q82 1023 188 1139T463 1255T749
1151T868 906T733 535L376 -128L308 -82L660 554Q562 506 474 506Z" />
<glyph unicode=":" glyph-name="colon" horiz-adv-x="416" d="M267 815V695H150V815H267ZM267 314V194H150V314H267Z" />
<glyph unicode=";" glyph-name="semicolon" horiz-adv-x="440" d="M292 316V193Q292 19 156 19V64Q203 79 215 103T227 196H166V316H292ZM287 815V695H170V815H287Z" />
<glyph unicode="&lt;" glyph-name="less" horiz-adv-x="907" d="M-18 613L829 1255V1162L96 613L829 68V-23L-18 613Z" />
<glyph unicode="=" glyph-name="equal" horiz-adv-x="791" d="M652 634H143V696H652V634ZM652 356H143V419H652V356Z" />
<glyph unicode="&gt;" glyph-name="greater" horiz-adv-x="909" d="M86 -23V68L819 613L86 1162V1255L933 613L86 -23Z" />
<glyph unicode="?" glyph-name="question" horiz-adv-x="727" d="M325 1151Q142 1151 81 1004L20 1040Q96 1223 315 1224Q462 1224 552 1142T642 906Q642 820 605 766T490 644T366 500T313 289H280Q280 544 422 674Q515 759 540 808T565 938T503 1084T325 1151ZM349
-23H265V56H349V-23Z" />
<glyph unicode="@" glyph-name="at" horiz-adv-x="1458" d="M983 252Q941 252 915 288T888 378Q888 408 891 424Q776 252 629 252Q527 252 474 310Q377 417 377 571T470 854T729 983T964 840L988 962H1075L953 402Q951 392 951 375Q951 353 970 339T1018 325Q1051
325 1116 375Q1182 426 1230 520T1278 716Q1278 921 1141 1057T756 1194T340 1023T172 590Q172 331 332 179T756 26Q1021 26 1174 133L1211 83Q1044 -43 783 -43Q335 -43 159 281Q84 419 84 545Q84 969 404 1168Q560 1265 744 1265Q1063 1265 1210 1109T1357 752T1241
401T983 252ZM921 678Q921 782 873 847T737 913Q609 913 540 803T471 574Q471 469 516 394T644 318Q766 318 843 439T921 678Z" />
<glyph unicode="A" glyph-name="A" horiz-adv-x="1321" d="M872 1234V1171H715L1130 62H1288V0H885V62H1044L884 503H409L249 62H408V0H4V62H163L579 1171H421V1234H872ZM430 564H861L646 1153L430 564Z" />
<glyph unicode="B" glyph-name="B" horiz-adv-x="1233" d="M940 654Q1053 622 1117 542T1183 331Q1183 201 1087 101T820 0H101V62H254V1171H88V1234H748Q919 1234 1015 1144T1111 931Q1111 744 940 654ZM820 62Q953 62 1028 144T1103 337T1024 530T805 613H335V62H820ZM796
678Q908 678 969 750T1031 954Q1031 1028 957 1099T748 1171H335V678H796Z" />
<glyph unicode="C" glyph-name="C" horiz-adv-x="1341" d="M1275 283Q1097 -23 701 -23Q457 -23 268 144T78 601T257 1073T731 1255T1191 1027V1234H1266V887L1204 874Q1112 1082 888 1156Q810 1182 698 1182Q465 1182 314 1017T162 618T306 216T718 48Q1052 48
1206 334L1275 283Z" />
<glyph unicode="D" glyph-name="D" horiz-adv-x="1409" d="M793 1234Q1136 1234 1278 912Q1338 775 1338 637Q1338 364 1194 182T793 0H100V62H266V1171H100V1234H793ZM348 1171V62H792Q1012 62 1133 226T1254 616Q1254 934 1049 1088Q940 1170 792 1171H348Z" />
<glyph unicode="E" glyph-name="E" horiz-adv-x="1249" d="M355 1164V666H788V824H855V424H788V596H355V70H1040V376H1117V0H98V70H273V1164H98V1234H1095V858H1019V1164H355Z" />
<glyph unicode="F" glyph-name="F" horiz-adv-x="1137" d="M355 1164V643H848V817H915V404H848V577H355V70H557V0H98V70H273V1164H98V1234H1103V858H1026V1164H355Z" />
<glyph unicode="G" glyph-name="G" horiz-adv-x="1356" d="M1180 898Q1048 1182 696 1182Q465 1182 314 1017T162 617T306 215T719 48Q936 48 1070 175T1210 523H945V589H1294Q1294 162 975 28Q856 -22 743 -23Q351 -23 169 268Q78 414 78 652T257 1073T722 1255T1167
1051V1234H1242V898H1180Z" />
<glyph unicode="H" glyph-name="H" horiz-adv-x="1475" d="M1360 1234V1171H1220V62H1360V0H991V62H1139V598H337V62H492V0H104V62H256V1171H104V1234H492V1171H337V661H1139V1171H991V1234H1360Z" />
<glyph unicode="I" glyph-name="I" horiz-adv-x="612" d="M505 1234V1171H345V62H505V0H102V62H263V1171H102V1234H505Z" />
<glyph unicode="J" glyph-name="J" horiz-adv-x="461" d="M107 -41Q152 -41 166 -17T181 59V1174H42V1234H402V1174H263V60Q264 -91 150 -99Q120 -101 94 -101H23V-41H107Z" />
<glyph unicode="K" glyph-name="K" horiz-adv-x="1317" d="M506 1234V1174H345V642L941 1174H788V1234H1220V1174H1047L447 634L1107 60H1277V0H822V60H989L345 625V60H506V0H102V60H263V1174H102V1234H506Z" />
<glyph unicode="L" glyph-name="L" horiz-adv-x="1149" d="M471 1234V1174H332V70H960V412H1036V0H111V70H250V1174H111V1234H471Z" />
<glyph unicode="M" glyph-name="M" horiz-adv-x="1663" d="M342 1088V62H503V0H102V62H263V1171H102V1234H358L839 239L1300 1234H1556V1171H1395V62H1556V0H1155V62H1316V1088L839 78L342 1088Z" />
<glyph unicode="N" glyph-name="N" horiz-adv-x="1473" d="M342 1234L1186 125V1171H1025V1234H1426V1171H1265V0H1186L342 1114V62H503V0H102V62H263V1171H102V1234H342Z" />
<glyph unicode="O" glyph-name="O" horiz-adv-x="1427" d="M716 1182Q600 1182 501 1143T334 1040T226 890Q162 760 162 633Q162 381 307 215T718 48Q1064 48 1212 342Q1274 468 1274 576Q1274 939 1019 1101Q892 1182 716 1182ZM718 -23Q415 -23 247 165T78 612T246
1063T718 1255Q1120 1255 1286 922Q1358 779 1358 636Q1358 354 1190 166T718 -23Z" />
<glyph unicode="P" glyph-name="P" horiz-adv-x="1184" d="M101 62H254V1171H88V1234H769Q940 1234 1035 1129T1131 881T1036 627T769 517H335V62H505V0H101V62ZM335 582H769Q902 582 977 671T1052 880T977 1085T769 1171H335V582Z" />
<glyph unicode="Q" glyph-name="Q" horiz-adv-x="1425" d="M422 38Q78 198 78 652Q78 779 152 926Q226 1075 372 1165T718 1255Q1120 1255 1286 922Q1358 780 1358 640Q1358 373 1210 190T794 -19Q951 -108 1029 -108T1167 -84L1192 -157Q1114 -181 1054 -181Q989
-181 929 -163T830 -122T737 -70T640 -26Q603 -13 521 -13T303 -78L285 -7Q358 23 422 38ZM716 1182Q600 1182 501 1143T334 1040T226 890Q162 760 162 633Q162 381 307 215T718 48Q1064 48 1212 342Q1274 468 1274 576Q1274 939 1019 1101Q892 1182 716 1182Z"
/>
<glyph unicode="R" glyph-name="R" horiz-adv-x="1274" d="M101 62H254V1171H88V1234H728Q899 1234 994 1137T1090 907Q1090 775 995 676T728 577H727L1043 62H1217V0H985L643 577H335V62H505V0H101V62ZM728 642Q863 642 937 716T1011 934Q1011 1014 937 1092T728
1171H335V642H728Z" />
<glyph unicode="S" glyph-name="S" horiz-adv-x="1106" d="M565 1182Q234 1182 234 904Q234 777 321 732T608 666T929 573T1049 347T948 86T636 -23T231 112V0H152V416H231V196Q426 52 647 52T940 220Q960 268 960 333Q960 462 868 517T565 594T249 685T143 918T261
1168T552 1255T899 1163V1234H978V899H899V1080Q746 1182 565 1182Z" />
<glyph unicode="T" glyph-name="T" horiz-adv-x="1071" d="M1073 1234V842H996V1164H566V60H742V0H310V60H485V1164H62V842H-14V1234H1073Z" />
<glyph unicode="U" glyph-name="U" horiz-adv-x="1421" d="M1142 1171H981V1234H1384V1171H1224V404Q1224 203 1063 90T686 -23T317 89T163 404V1171H2V1234H405V1171H244V406Q244 235 373 142T680 48Q981 48 1102 250Q1142 317 1142 406V1171Z" />
<glyph unicode="V" glyph-name="V" horiz-adv-x="1159" d="M516 0L76 1171H-82V1234H321V1171H164L560 100L952 1171H799V1234H1202V1171H1046L602 0H516Z" />
<glyph unicode="W" glyph-name="W" horiz-adv-x="1827" d="M1239 0L893 1044L560 0H471L80 1171H-78V1234H325V1171H168L516 100L848 1171H695V1234H1093V1171H936L1284 100L1616 1171H1463V1234H1862V1171H1706L1326 0H1239Z" />
<glyph unicode="X" glyph-name="X" horiz-adv-x="1270" d="M470 1234V1171H310L629 695L947 1171H787V1234H1190V1171H1032L673 629L1054 62H1214V0H811V62H972L632 568L298 62H458V0H55V62H209L588 634L228 1171H67V1234H470Z" />
<glyph unicode="Y" glyph-name="Y" horiz-adv-x="1141" d="M-88 1171V1234H315V1171H158L555 508L945 1171H786V1234H1189V1171H1033L594 436V62H754V0H351V62H512V436L70 1171H-88Z" />
<glyph unicode="Z" glyph-name="Z" horiz-adv-x="1229" d="M185 70H1027V376H1104V0H102V96L979 1164H198V870H121V1234H1068V1153L185 70Z" />
<glyph unicode="[" glyph-name="bracketleft" horiz-adv-x="518" d="M420 1255V1193H260V40H420V-23H178V1255H420Z" />
<glyph unicode="\" glyph-name="backslash" horiz-adv-x="535" d="M496 -23H420L53 1255H124L496 -23Z" />
<glyph unicode="]" glyph-name="bracketright" horiz-adv-x="522" d="M342 1255V-23H100V40H261V1193H100V1255H342Z" />
<glyph unicode="^" glyph-name="asciicircum" horiz-adv-x="891" d="M822 761H750L449 1186L135 761H61L407 1255H492L822 761Z" />
<glyph unicode="_" glyph-name="underscore" horiz-adv-x="1016" d="M871 -62H139V0H871V-62Z" />
<glyph unicode="`" glyph-name="grave" horiz-adv-x="420" d="M261 985L104 1234H231L292 985H261Z" />
<glyph unicode="a" glyph-name="a" horiz-adv-x="981" d="M342 -14Q221 -14 151 54T80 248Q80 474 401 475Q527 475 674 446V575Q674 787 436 787Q246 787 156 696L120 755Q223 854 457 854T741 679Q754 633 754 593V60H907V0H690L674 95Q525 -14 342 -14ZM161
232Q161 148 219 101T376 53Q560 53 674 158V384Q544 410 430 410Q296 410 229 372T161 232Z" />
<glyph unicode="b" glyph-name="b" horiz-adv-x="1169" d="M338 1234V695Q473 854 686 854T1018 729T1136 434Q1136 186 943 51T475 36Q381 77 338 125Q334 93 331 62L325 0H94V60H259V1174H110V1234H338ZM1057 388Q1057 577 961 682T682 787Q503 787 338 619V193Q518
53 694 53T964 165T1057 388Z" />
<glyph unicode="c" glyph-name="c" horiz-adv-x="936" d="M772 600Q763 690 691 737T502 787Q351 787 245 690T139 423T246 155T500 54Q716 54 844 222L867 149Q704 -14 510 -13Q384 -12 281 42T118 195T57 418Q57 612 179 731T498 852Q699 855 762 750V860H838V600H772Z" />
<glyph unicode="d" glyph-name="d" horiz-adv-x="1165" d="M845 125Q720 -14 439 -14Q327 -14 231 58T92 224Q47 326 47 420Q47 604 165 729T496 854T845 695V1174H641V1234H924V60H1089V0H858L845 125ZM480 53Q665 53 845 193V619Q680 787 501 787T224 684T126
426Q126 184 324 86Q390 53 480 53Z" />
<glyph unicode="e" glyph-name="e" horiz-adv-x="934" d="M867 149Q695 -14 501 -14T182 109T57 414T175 725T487 854T785 723T890 400H139Q156 149 362 74Q422 52 488 52Q690 52 834 204L867 149ZM812 466Q791 680 629 760Q574 787 496 787Q340 787 244 691T141
466H812Z" />
<glyph unicode="f" glyph-name="f" horiz-adv-x="643" d="M261 1064Q261 1143 308 1188T444 1234Q502 1234 542 1184T584 1066H509Q509 1172 428 1172Q390 1172 365 1141T340 1066V836H543V779H340V60H531V0H106V60H261V779H106V836H261V1064Z" />
<glyph unicode="g" glyph-name="g" horiz-adv-x="1110" d="M831 120Q702 -14 494 -14T172 115T57 414T163 719T458 854T780 758Q814 734 831 715L844 840H1074V780H910V29Q910 -204 717 -272Q606 -311 478 -314T261 -317V-248H410Q659 -248 745 -182T831 12V120ZM831
647Q654 787 483 787T224 676T137 452Q139 273 229 163T482 53Q634 53 708 99T831 190V647Z" />
<glyph unicode="h" glyph-name="h" horiz-adv-x="1198" d="M86 1176V1234H338V736Q506 829 574 841T699 854Q833 854 896 784T960 617V60H1135V0H723V60H881V601Q881 787 687 787Q561 787 419 709Q379 687 338 664V60H530V0H97V60H259V1176H86Z" />
<glyph unicode="i" glyph-name="i" horiz-adv-x="582" d="M300 1092Q274 1092 257 1108T239 1148Q239 1205 301 1205Q329 1205 346 1190T364 1149T346 1108T300 1092ZM115 776V836H344V60H498V0H115V60H265V776H115Z" />
<glyph unicode="j" glyph-name="j" horiz-adv-x="408" d="M162 779H25V836H241V-22Q242 -145 218 -186Q169 -271 27 -271H-53V-211H25Q119 -211 140 -174T162 -34V779ZM218 1092T192 1092T148 1108T130 1148Q130 1205 192 1205Q254 1205 254 1148Q254 1124 236 1108Z" />
<glyph unicode="k" glyph-name="k" horiz-adv-x="1124" d="M94 1174V1234H359V454L753 776H629V836H1014V776H855L452 439L898 60H1049V0H666V60H789L359 431V60H543V0H94V60H280V1174H94Z" />
<glyph unicode="l" glyph-name="l" horiz-adv-x="612" d="M94 1174V1234H359V60H543V0H94V60H280V1174H94Z" />
<glyph unicode="m" glyph-name="m" horiz-adv-x="1659" d="M1201 854Q1300 854 1356 791T1412 617V60H1588V0H1176V60H1333V601Q1332 736 1262 772Q1214 792 1152 786T1042 758Q979 729 875 664Q878 640 878 617V60H1054V0H642V60H799V601Q798 736 728 772Q682
791 620 786T510 759Q451 731 344 664V60H500V0H103V60H265V779H92V836H332L341 736Q489 829 552 841T661 854Q804 854 858 727Q1041 854 1201 854Z" />
<glyph unicode="n" glyph-name="n" horiz-adv-x="1202" d="M879 601Q878 698 835 741T698 787Q531 787 361 668V60H543V0H100V60H281V779H101V836H349L357 736Q536 854 718 854Q830 854 894 793T958 617V60H1133V0H722V60H879V601Z" />
<glyph unicode="o" glyph-name="o" horiz-adv-x="1004" d="M879 594T768 690T507 787T249 690T139 422T248 152T507 53T768 151T879 422ZM959 218T824 102T507 -14T191 102T57 422T190 740T506 854T824 740T959 422Z" />
<glyph unicode="p" glyph-name="p" horiz-adv-x="1120" d="M281 715Q443 854 687 854Q799 854 895 782T1034 616Q1079 514 1079 420Q1079 236 961 111T630 -14T281 145V-262H428V-322H53V-262H202V780H37V840H268L281 715ZM646 787Q461 787 281 647V221Q446 53
625 53T902 156T1000 414Q1000 656 802 754Q736 787 646 787Z" />
<glyph unicode="q" glyph-name="q" horiz-adv-x="1141" d="M474 854Q586 854 694 814T855 715L869 840H1099V780H935V-262H1083V-322H708V-262H855V97Q720 -14 507 -14T175 111T57 406Q56 654 238 781Q342 854 474 854ZM137 452Q137 261 234 157T519 53T855 163V647Q675
787 499 787T230 675T137 452Z" />
<glyph unicode="r" glyph-name="r" horiz-adv-x="748" d="M574 787Q506 787 457 740T386 622T363 468V60H546V0H100V60H284V779H101V836H351L363 652Q387 739 443 796T586 854Q667 854 756 814L744 746Q660 787 574 787Z" />
<glyph unicode="s" glyph-name="s" horiz-adv-x="874" d="M811 228Q811 143 758 87T626 9T447 -14Q284 -14 197 73V0H129V268H197V168Q253 53 450 53T710 148Q731 180 731 243Q731 369 522 392T223 461T133 620Q132 792 320 840Q374 854 430 853Q598 853 684 776V836H754V572H684V695Q610
786 452 786T235 696Q215 666 215 620Q215 538 308 504Q353 487 503 466T732 395T811 228Z" />
<glyph unicode="t" glyph-name="t" horiz-adv-x="547" d="M37 781V836H162V1148L241 1166V836H440V781H241V238Q241 135 262 98T378 60H456V0H375Q178 0 166 160Q162 204 162 250V781H37Z" />
<glyph unicode="u" glyph-name="u" horiz-adv-x="1102" d="M268 239Q268 141 314 98T459 53Q594 53 784 173V776H610V836H863V58H1036V0H796L788 104Q634 12 567 -1T406 -14Q314 -14 252 56T189 223V776H14V836H268V239Z" />
<glyph unicode="v" glyph-name="v" horiz-adv-x="1032" d="M217 776L519 71L797 776H654V836H1046V776H887L567 0H477L135 776H-29V836H369V776H217Z" />
<glyph unicode="w" glyph-name="w" horiz-adv-x="1554" d="M217 776L463 65L724 776H581V836H961V776H815L1078 65L1316 776H1174V836H1566V776H1406L1127 0H1037L774 710L509 0H419L139 776H-25V836H370V776H217Z" />
<glyph unicode="x" glyph-name="x" horiz-adv-x="1182" d="M327 776L577 481L824 776H676V836H1073V776H914L623 426L933 60H1084V0H689V60H853L584 378L321 60H459V0H76V60H226L537 433L249 776H100V836H484V776H327Z" />
<glyph unicode="y" glyph-name="y" horiz-adv-x="1026" d="M139 -206Q282 -206 343 -191T437 -104L507 58H451L131 776H-33V836H366V776H218L517 89L793 776H650V836H1043V776H884L510 -127Q450 -266 264 -272Q206 -274 139 -274V-206Z" />
<glyph unicode="z" glyph-name="z" horiz-adv-x="909" d="M106 0V67L682 776H211V583H142V836H765V764L196 58H714V277H783V0H106Z" />
<glyph unicode="{" glyph-name="braceleft" horiz-adv-x="555" d="M301 212Q301 102 334 67T475 31V-23H410Q225 -24 218 184Q216 248 216 364T194 527T68 574V658Q172 658 194 705T216 926T238 1157Q276 1255 410 1255H475V1201Q367 1201 334 1166T301 963T276
709T164 616Q285 608 297 392Q301 321 301 212Z" />
<glyph unicode="|" glyph-name="bar" horiz-adv-x="426" d="M178 1255H246V-23H178V1255Z" />
<glyph unicode="}" glyph-name="braceright" horiz-adv-x="557" d="M260 1022Q260 1133 228 1167T86 1201V1255H151Q337 1256 344 1048Q346 984 346 868T368 705T493 658V574Q390 574 368 527T346 306T324 75Q286 -23 151 -23H86V31Q194 31 227 66T260 269T286
523T397 616Q276 624 264 840Q260 912 260 1022Z" />
<glyph unicode="~" glyph-name="asciitilde" horiz-adv-x="788" d="M249 1157Q280 1157 406 1134T561 1110Q609 1110 624 1153H661Q646 1022 537 1022Q478 1022 367 1045T216 1069T163 1028H125Q140 1157 249 1157Z" />
</font>
</defs>
</svg>
